<?xml version="1.0" ?><svg width="24px" height="24px" viewBox="0 0 24 24" id="Main" xmlns="http://www.w3.org/2000/svg"><title/><path d="M20,7H18a2,2,0,0,0-2,2V20H15V12a2,2,0,0,0-2-2H11a2,2,0,0,0-2,2v8H8V16a2,2,0,0,0-2-2H4a2,2,0,0,0-2,2v5a1,1,0,0,0,1,1H21a1,1,0,0,0,1-1V9A2,2,0,0,0,20,7ZM4,20V16H6v4Zm7,0V12h2v8Zm7,0V9h2V20Z"/><path d="M3.81,12.58l4.57-6.4L13.68,8a1,1,0,0,0,.82-.08l7-4a1,1,0,0,0-1-1.74L13.89,5.91,8.32,4.05a1,1,0,0,0-1.13.37l-5,7a1,1,0,0,0,.23,1.39A1,1,0,0,0,3,13,1,1,0,0,0,3.81,12.58Z"/></svg>