<?xml version="1.0" encoding="iso-8859-1"?>
<!-- Generator: Adobe Illustrator 16.0.0, SVG Export Plug-In . SVG Version: 6.00 Build 0)  -->
<!DOCTYPE svg PUBLIC "-//W3C//DTD SVG 1.1//EN" "http://www.w3.org/Graphics/SVG/1.1/DTD/svg11.dtd">
<svg version="1.1" id="Capa_1" xmlns="http://www.w3.org/2000/svg" xmlns:xlink="http://www.w3.org/1999/xlink" x="0px" y="0px"
	 width="62.057px" height="62.057px" viewBox="0 0 62.057 62.057" style="enable-background:new 0 0 62.057 62.057;"
	 xml:space="preserve">
<g>
	<g>
		<path d="M6.934,20.62V0.169H0V20.62v41.268h6.934V20.62z M2.083,2.252H4.85V20.62H2.083V2.252z"/>
		<path d="M14.688,6.635V0.169H7.755v6.465v55.253h6.933L14.688,6.635L14.688,6.635z M9.839,2.252h2.767v4.382H9.839V2.252z"/>
		<path d="M22.676,12.308V0.169h-6.933v12.139v49.58h6.933V12.308z M17.826,2.252h2.767v10.056h-2.767V2.252z"/>
		<path d="M30.665,27.348V0.169h-6.933v27.179v34.54h6.933V27.348z M25.815,2.252h2.766v25.096h-2.766V2.252z"/>
		<path d="M38.651,33.22V0.169h-6.933v33.05v28.668h6.933V33.22z M33.804,2.252h2.767V33.22h-2.767V2.252z"/>
		<path d="M47.428,30.251v31.636h6.933V30.251V0.169h-6.933V30.251z M49.511,2.252h2.766v27.999h-2.766V2.252z"/>
		<path d="M55.123,13.363v48.524h6.934V13.363V0.169h-6.934V13.363z M57.206,2.252h2.767v11.111h-2.767V2.252z"/>
		<path d="M46.496,40.213V0.169h-6.934v40.043v21.675h6.934V40.213z M41.646,2.252h2.767v37.96h-2.767V2.252z"/>
	</g>
</g>
<g>
</g>
<g>
</g>
<g>
</g>
<g>
</g>
<g>
</g>
<g>
</g>
<g>
</g>
<g>
</g>
<g>
</g>
<g>
</g>
<g>
</g>
<g>
</g>
<g>
</g>
<g>
</g>
<g>
</g>
</svg>
